<svg xmlns="http://www.w3.org/2000/svg" viewBox="0 0 512 512">
  <defs>
    <linearGradient id="bg" x1="0%" y1="0%" x2="100%" y2="100%">
      <stop offset="0%" style="stop-color:#6366f1"/>
      <stop offset="100%" style="stop-color:#8b5cf6"/>
    </linearGradient>
    <linearGradient id="brain" x1="0%" y1="0%" x2="100%" y2="100%">
      <stop offset="0%" style="stop-color:#ffffff"/>
      <stop offset="100%" style="stop-color:#e0e7ff"/>
    </linearGradient>
  </defs>
  <!-- Background -->
  <rect width="512" height="512" rx="96" fill="url(#bg)"/>
  <!-- Brain icon -->
  <g transform="translate(96, 96) scale(0.625)">
    <path fill="url(#brain)" d="M256 48C141.1 48 48 141.1 48 256s93.1 208 208 208 208-93.1 208-208S370.9 48 256 48zm0 368c-88.4 0-160-71.6-160-160S167.6 96 256 96s160 71.6 160 160-71.6 160-160 160z"/>
    <circle cx="200" cy="200" r="24" fill="url(#brain)" opacity="0.9"/>
    <circle cx="312" cy="200" r="24" fill="url(#brain)" opacity="0.9"/>
    <circle cx="256" cy="280" r="32" fill="url(#brain)" opacity="0.9"/>
    <circle cx="168" cy="280" r="20" fill="url(#brain)" opacity="0.8"/>
    <circle cx="344" cy="280" r="20" fill="url(#brain)" opacity="0.8"/>
    <circle cx="256" cy="168" r="20" fill="url(#brain)" opacity="0.8"/>
    <!-- Neural connections -->
    <line x1="200" y1="200" x2="256" y2="168" stroke="#ffffff" stroke-width="6" opacity="0.6"/>
    <line x1="312" y1="200" x2="256" y2="168" stroke="#ffffff" stroke-width="6" opacity="0.6"/>
    <line x1="200" y1="200" x2="168" y2="280" stroke="#ffffff" stroke-width="6" opacity="0.6"/>
    <line x1="312" y1="200" x2="344" y2="280" stroke="#ffffff" stroke-width="6" opacity="0.6"/>
    <line x1="200" y1="200" x2="256" y2="280" stroke="#ffffff" stroke-width="6" opacity="0.6"/>
    <line x1="312" y1="200" x2="256" y2="280" stroke="#ffffff" stroke-width="6" opacity="0.6"/>
    <line x1="168" y1="280" x2="256" y2="280" stroke="#ffffff" stroke-width="6" opacity="0.6"/>
    <line x1="344" y1="280" x2="256" y2="280" stroke="#ffffff" stroke-width="6" opacity="0.6"/>
  </g>
  <!-- Sparkle -->
  <g transform="translate(380, 80)">
    <path fill="#fbbf24" d="M24 0L28 16L44 20L28 24L24 40L20 24L4 20L20 16Z"/>
  </g>
</svg>
